<svg width="116" height="21" viewBox="0 0 116 21" fill="none" xmlns="http://www.w3.org/2000/svg">
<path d="M25.4408 2.41715C23.3983 2.41715 21.5335 3.17955 20.1105 4.43145C20.1191 4.52241 20.1235 4.61555 20.1213 4.70868V8.78059C20.1213 11.7132 22.5081 14.1001 25.4408 14.1001C26.6775 14.1001 27.6803 15.1029 27.6803 16.3396C27.6803 17.5763 26.6775 18.5791 25.4408 18.5791C25.2913 18.5791 25.1419 18.5748 24.9924 18.5683C25.1397 18.577 25.2892 18.5813 25.4408 18.5813C29.8982 18.5813 33.5218 14.9556 33.5218 10.4982C33.5218 6.04072 29.896 2.41715 25.4408 2.41715ZM25.4408 14.1001C23.4568 14.1001 21.841 12.4843 21.841 10.5003C21.841 8.51635 23.4568 6.90058 25.4408 6.90058C27.4247 6.90058 29.0405 8.51635 29.0405 10.5003C29.0405 12.4843 27.4247 14.1001 25.4408 14.1001Z" fill="white"/>
<path d="M27.6803 16.3396C27.6803 15.1029 26.6775 14.1001 25.4407 14.1001C22.5081 14.1001 20.1213 11.7132 20.1213 8.78059V4.70868C20.1213 4.61555 20.1213 4.52458 20.1104 4.43145C20.0455 3.79034 19.7076 3.18172 19.1293 2.79402C18.1005 2.10526 16.71 2.38033 16.0212 3.40914L10.0606 12.311L4.0979 3.4113C4.05674 3.34849 4.01126 3.29001 3.96361 3.23153C3.93762 3.20121 3.91163 3.17305 3.88564 3.1449C3.86398 3.12107 3.84232 3.09508 3.81849 3.07126C3.78384 3.0366 3.74485 3.00411 3.70803 2.97162C3.69071 2.95646 3.67554 2.9413 3.65605 2.92614C3.61923 2.89582 3.58241 2.86983 3.54342 2.84167C3.52176 2.82651 3.50227 2.80918 3.47845 2.79402C3.44596 2.77236 3.4113 2.75287 3.37665 2.73337C3.34633 2.71605 3.31817 2.69655 3.28785 2.68139C3.25969 2.66623 3.23153 2.6554 3.20338 2.64024C3.16439 2.62075 3.12757 2.60342 3.08642 2.58609C3.06476 2.57743 3.0431 2.57093 3.02144 2.56227C2.97379 2.54494 2.92831 2.52761 2.88066 2.51245C2.86333 2.50812 2.846 2.50379 2.82867 2.49946C2.77669 2.48429 2.72471 2.4713 2.67056 2.46047C2.64674 2.45614 2.62291 2.45397 2.59909 2.44964C2.55144 2.44098 2.50379 2.43231 2.45614 2.42798C2.3825 2.42148 2.30886 2.41715 2.23522 2.41715C2.22439 2.41715 2.21356 2.41715 2.20273 2.41715C2.13992 2.41715 2.0771 2.42148 2.01429 2.42582C1.9883 2.42798 1.96231 2.43231 1.93849 2.43665C1.89084 2.44314 1.84535 2.44964 1.7977 2.4583C1.76305 2.4648 1.73056 2.47347 1.69807 2.48213C1.66125 2.49079 1.62226 2.49946 1.58544 2.51029C1.54646 2.52328 1.50747 2.53844 1.46848 2.55144C1.43816 2.56227 1.41001 2.57093 1.37968 2.58393C1.33203 2.60342 1.28655 2.62508 1.24106 2.6489C1.22157 2.65973 1.19991 2.6684 1.18042 2.67923C1.12194 2.70955 1.06563 2.7442 1.01148 2.78102C1.00498 2.78536 0.996317 2.78969 0.989819 2.79402C0.927008 2.83517 0.868529 2.88066 0.812215 2.92614C0.777561 2.9543 0.747238 2.98462 0.716915 3.01278C0.695256 3.03227 0.673597 3.05176 0.651938 3.07126C0.615118 3.10808 0.580463 3.14706 0.547974 3.18605C0.534979 3.20121 0.519818 3.21637 0.506822 3.23153C0.476499 3.26835 0.448343 3.30951 0.420186 3.34849C0.405025 3.36799 0.389863 3.38748 0.376868 3.40697C0.353043 3.44163 0.33355 3.47845 0.311891 3.5131C0.294563 3.54126 0.279402 3.56725 0.264241 3.59541C0.249079 3.62573 0.236084 3.65605 0.220922 3.68637C0.203595 3.72319 0.186268 3.75785 0.171107 3.79683C0.160277 3.82066 0.153779 3.84665 0.145116 3.87048C0.127789 3.91379 0.112627 3.95928 0.0974658 4.0026C0.0909681 4.02425 0.0866363 4.04591 0.0801385 4.06974C0.0671431 4.11739 0.0541477 4.16504 0.0433181 4.21485C0.0368204 4.24951 0.0324886 4.28416 0.0281568 4.31665C0.0216591 4.35347 0.0151613 4.39029 0.0108295 4.42928C0.00433181 4.50292 0 4.57873 0 4.65237V16.3353C0 17.572 1.00281 18.577 2.24171 18.577C3.48061 18.577 4.48343 17.5742 4.48343 16.3353V12.0273L8.18713 17.559C8.18713 17.559 8.19363 17.5698 8.19796 17.5763L8.20229 17.5828C8.23478 17.6305 8.26943 17.676 8.30409 17.7215C8.31708 17.7388 8.33008 17.7539 8.34307 17.7691C8.37989 17.8146 8.41888 17.8579 8.45787 17.8969C8.4622 17.9012 8.46653 17.9056 8.4687 17.9099C8.51851 17.9597 8.56833 18.0052 8.62031 18.0485C8.62681 18.055 8.6333 18.0593 8.64197 18.0658C8.69828 18.1113 8.7546 18.1546 8.81308 18.1936C8.81308 18.1936 8.81308 18.1936 8.81524 18.1936C8.81741 18.1936 8.81957 18.1958 8.8239 18.1979C8.86506 18.2239 8.90621 18.2499 8.94736 18.2738C8.95819 18.2803 8.96902 18.2868 8.97985 18.2911C9.0145 18.3106 9.04916 18.3279 9.08381 18.3452C9.09897 18.3517 9.11414 18.3604 9.1293 18.3669C9.16179 18.3821 9.19211 18.395 9.2246 18.408C9.25709 18.421 9.29174 18.434 9.3264 18.447C9.35239 18.4557 9.37838 18.4665 9.40437 18.473C9.43252 18.4817 9.46285 18.4903 9.491 18.4968C9.50833 18.5012 9.52782 18.5077 9.54515 18.512C9.57331 18.5185 9.60363 18.525 9.63179 18.5315C9.65128 18.5358 9.67077 18.538 9.69027 18.5423C9.71842 18.5467 9.74658 18.551 9.77474 18.5553C9.79856 18.5575 9.82022 18.5597 9.84405 18.564C9.86787 18.5662 9.89386 18.5683 9.91769 18.5705C9.95884 18.5727 9.99783 18.5748 10.039 18.5748C10.0455 18.5748 10.0541 18.5748 10.0606 18.5748C10.0671 18.5748 10.0758 18.5748 10.0823 18.5748C10.1234 18.5748 10.1624 18.5748 10.2036 18.5705C10.2274 18.5705 10.2534 18.5662 10.2772 18.564C10.3011 18.5618 10.3249 18.5597 10.3487 18.5553C10.3769 18.551 10.4029 18.5467 10.431 18.5423C10.4505 18.538 10.4722 18.5358 10.4917 18.5315C10.5198 18.525 10.548 18.5207 10.5783 18.5142C10.5978 18.5098 10.6173 18.5033 10.6368 18.499C10.6649 18.4925 10.6931 18.4839 10.7212 18.4752C10.7537 18.4644 10.784 18.4535 10.8165 18.4427C10.8447 18.4319 10.8707 18.4232 10.8988 18.4124C10.9313 18.3994 10.9638 18.3864 10.9963 18.3712C11.0115 18.3647 11.0245 18.3582 11.0396 18.3496C11.0743 18.3322 11.1089 18.3149 11.1436 18.2954C11.1544 18.2889 11.1652 18.2824 11.1761 18.2781C11.2172 18.2543 11.2584 18.2283 11.2995 18.2023C11.3017 18.2023 11.306 18.1979 11.3082 18.1979C11.3082 18.1979 11.3082 18.1979 11.3104 18.1979C11.3688 18.159 11.4273 18.1156 11.4815 18.0702C11.488 18.0637 11.4945 18.0593 11.5031 18.0528C11.5551 18.0095 11.6071 17.9619 11.6547 17.9142C11.6591 17.9099 11.6634 17.9056 11.6677 17.9012C11.7067 17.8601 11.7457 17.8167 11.7825 17.7734C11.7955 17.7583 11.8085 17.7409 11.8237 17.7236C11.8583 17.6781 11.893 17.6326 11.9255 17.585L11.9298 17.5785C11.9298 17.5785 11.9385 17.5677 11.9406 17.5612L16.0234 11.4641C17.154 15.4278 20.7212 18.3734 24.9967 18.5662C25.1462 18.5727 25.2935 18.577 25.4451 18.577C26.6818 18.577 27.6846 17.5742 27.6846 16.3374L27.6803 16.3396Z" fill="#343D3A"/>
<path d="M42.6143 4.31882C41.0527 4.31882 39.9264 5.19168 39.6275 5.99523V6.20099C39.6275 5.21334 38.7785 4.38596 37.7886 4.38596C36.7988 4.38596 35.9043 5.21334 35.9043 6.20099V19.1358C35.9043 20.1473 36.7555 20.9508 37.7432 20.9508C38.7308 20.9508 39.6037 20.1473 39.6037 19.1358V15.1375C39.948 15.7353 40.9834 16.5627 42.6143 16.5627C45.1419 16.5627 48.1287 14.6329 48.1287 10.4288C48.1287 6.22482 45.0964 4.31665 42.6143 4.31665V4.31882ZM41.9255 13.4395C40.914 13.4395 39.4672 12.7269 39.4672 10.4288C39.4672 8.13082 40.914 7.44206 41.9255 7.44206C43.2359 7.44206 44.4531 8.47519 44.4531 10.4288C44.4531 12.3825 43.2359 13.4395 41.9255 13.4395Z" fill="white"/>
<path d="M57.8254 4.34264C55.4819 4.34264 54.1715 6.11219 54.1043 6.96122V1.83885C54.1043 0.827376 53.2531 0 52.2655 0C51.2778 0 50.4266 0.827376 50.4266 1.83885V14.7043C50.4266 15.7158 51.2757 16.5194 52.2655 16.5194C53.2553 16.5194 54.1043 15.7158 54.1043 14.7043V9.60363C54.1043 9.35022 54.518 7.44422 56.4024 7.44422C57.6196 7.44422 58.447 8.24777 58.447 10.0411V14.7043C58.447 15.7158 59.2744 16.5194 60.262 16.5194C61.2497 16.5194 62.1009 15.7158 62.1009 14.7043V10.0411C62.1009 5.9974 60.2165 4.34264 57.8275 4.34264H57.8254Z" fill="white"/>
<path d="M70.6237 4.31882C67.9813 4.31882 64.3967 6.38726 64.3967 10.4765C64.3967 14.5657 67.9813 16.5649 70.6237 16.5649C73.2661 16.5649 76.8269 14.5895 76.8269 10.4765C76.8269 6.36343 73.2423 4.31882 70.6237 4.31882ZM70.6237 13.394C69.1769 13.394 68.0268 12.1984 68.0268 10.4765C68.0268 8.7546 69.1747 7.48971 70.6237 7.48971C72.0727 7.48971 73.2206 8.68529 73.2206 10.4765C73.2206 12.2677 72.0489 13.394 70.6237 13.394Z" fill="white"/>
<path d="M86.5237 4.34264C84.1802 4.34264 82.8698 6.11219 82.8005 6.96122V6.24864C82.8005 5.2155 81.9515 4.38813 80.9617 4.38813C79.9718 4.38813 79.1228 5.2155 79.1228 6.24864V14.7043C79.1228 15.7158 79.974 16.5194 80.9617 16.5194C81.9493 16.5194 82.8005 15.7158 82.8005 14.7043V9.60363C82.8005 9.35022 83.2142 7.44422 85.0985 7.44422C86.3158 7.44422 87.1432 8.24777 87.1432 10.0411V14.7043C87.1432 15.7158 87.9705 16.5194 88.9582 16.5194C89.9458 16.5194 90.797 15.7158 90.797 14.7043V10.0411C90.797 5.9974 88.9127 4.34264 86.5237 4.34264Z" fill="white"/>
<path d="M99.2288 4.31882C96.6102 4.31882 93.095 6.29412 93.095 10.4765C93.095 14.6589 96.3807 16.5194 99.5061 16.5194C100.953 16.5194 102.01 16.1512 102.792 15.6703C103.48 15.1419 103.665 14.6134 103.665 14.1759C103.665 13.4871 103.205 12.9586 102.447 12.9586C101.988 12.9586 101.598 13.1644 101.115 13.3268C100.472 13.4871 100.357 13.5802 99.6685 13.5802C98.174 13.5802 97.234 12.8915 96.9113 11.7197L102.77 11.789C104.241 11.789 105.023 11.306 105.023 9.85921C105.023 6.41325 101.852 4.32315 99.2332 4.32315L99.2288 4.31882ZM96.9091 9.28091C97.1149 7.97054 98.1502 7.48971 99.2288 7.48971C100.307 7.48971 101.182 7.9727 101.412 9.28091H96.9091Z" fill="white"/>
<path d="M112.67 9.12063L111.315 8.70695C110.418 8.43188 110.487 8.01819 110.487 7.90339C110.487 7.48971 110.832 7.19081 111.429 7.19081C111.798 7.19081 112.187 7.3056 112.647 7.74312C113.106 8.24777 113.634 8.41022 114.139 8.41022C114.943 8.41022 115.54 7.95104 115.54 7.05436C115.54 6.45657 115.22 6.06671 115.081 5.90643C114.323 4.87329 112.761 4.32098 111.291 4.32098C109.153 4.32098 106.879 5.44726 106.879 7.92722C106.879 9.62746 107.867 10.8902 110.256 11.6028L111.336 11.9233C112.369 12.246 112.348 12.7507 112.348 12.8417C112.348 13.1644 112.094 13.5759 111.176 13.5759C110.648 13.5759 110.095 13.4611 109.361 12.7724C109.04 12.428 108.627 11.9688 107.89 11.9688C106.857 11.9688 106.513 12.7507 106.513 13.3247C106.513 14.1737 107.156 14.9101 107.295 15.0487C107.983 15.6227 109.04 16.5194 111.178 16.5194C113.567 16.5194 115.98 15.3021 115.98 12.6359C115.98 10.4982 114.373 9.62529 112.67 9.12063Z" fill="white"/>
</svg>
